HIERARCHY
ROOT pelvis
{
  OFFSET 0 100 0
  CHANNELS 6 Xposition Yposition Zposition Zrotation Xrotation Yrotation
  JOINT pelvis_right_femur
  {
    OFFSET -10.78128 -3.44521 -0.5502486
    CHANNELS 3 Zrotation Xrotation Yrotation
    JOINT right_femur_tibia
    {
      OFFSET -0.8047443 -44.0398 -0.1307829
      CHANNELS 3 Zrotation Xrotation Yrotation
      JOINT right_tibia_foot
      {
        OFFSET 3.006224 -47.83518 -5
        CHANNELS 3 Zrotation Xrotation Yrotation
        End Site
        {
          OFFSET 0 -5 15
        }
      }
    }
  }
  JOINT pelvis_left_femur
  {
    OFFSET 10.78128 -3.44521 -0.5502486
    CHANNELS 3 Zrotation Xrotation Yrotation
    JOINT left_femur_tibia
    {
      OFFSET 0.8047443 -44.0398 -0.1307829
      CHANNELS 3 Zrotation Xrotation Yrotation
      JOINT left_tibia_foot
      {
        OFFSET -4.370144 -48.10324 -4.275266
        CHANNELS 3 Zrotation Xrotation Yrotation
        End Site
        {
          OFFSET 0 -5 15
        }
      }
    }
  }
  JOINT pelvis_spine1
  {
    OFFSET 0 6.468898 -3.129235
    CHANNELS 3 Zrotation Xrotation Yrotation
    JOINT spine1
    {
      OFFSET 0 23.15396 4.99043
      CHANNELS 3 Zrotation Xrotation Yrotation
      JOINT spine2
      {
        OFFSET 0 20.79997 -5.064912
        CHANNELS 3 Zrotation Xrotation Yrotation
        JOINT neck
        {
          OFFSET 0 14.38658 9.616178
          CHANNELS 3 Zrotation Xrotation Yrotation
          End Site
          {
            OFFSET 0 20 0
          }
        }
      }
      JOINT right_manubrium
      {
        OFFSET -5.722621 16.35077 3.967754
        CHANNELS 3 Zrotation Xrotation Yrotation
        JOINT right_clavicle
        {
          OFFSET -13.16364 1.694482 -4.693211
          CHANNELS 3 Zrotation Xrotation Yrotation
          JOINT right_humerus
          {
            OFFSET -28.5034 -0.3100689 -2.792744
            CHANNELS 3 Zrotation Xrotation Yrotation
            JOINT right_radius
            {
              OFFSET -25.15693 0.02248979 -1.271978
              CHANNELS 3 Zrotation Xrotation Yrotation
              End Site
              {
                OFFSET -15 0 0
              }
            }
          }
        }
      }
      JOINT left_manubrium
      {
        OFFSET 5.722621 16.35077 3.967754
        CHANNELS 3 Zrotation Xrotation Yrotation
        JOINT left_clavicle
        {
          OFFSET 13.16364 1.694482 -4.693211
          CHANNELS 3 Zrotation Xrotation Yrotation
          JOINT left_humerus
          {
            OFFSET 29.39168 -1.063119 -2.237045
            CHANNELS 3 Zrotation Xrotation Yrotation
            JOINT left_radius
            {
              OFFSET 24.59957 -0.9528479 0.9047498
              CHANNELS 3 Zrotation Xrotation Yrotation
              End Site
              {
                OFFSET 15 -0 -0
              }
            }
          }
        }
      }
    }
  }
}
MOTION
Frames: 21
Frame Time: 0.0416666666667
0 103.5113 0 2.44369 0.635978 0.1968368 3.057859 -16.32601 9.371176 -0 36.1749 -0 -2.686955 -19.80234 -1.564075 -9.27983 9.539428 -22.37121 -0 4.26807 -0 21.93171 -9.205291 29.89604 -1.844601 -2.431971 6.003322 1.674793 10.26847 -6.666741 1.503084 21.08362 6.968669 3.116232 -24.42797 10.00618 5.333399 -19.70169 11.05277 85.89009 39.07144 -17.44138 -0 0 15.29012 -8.197701 9.521334 4.628191 6.667235 -20.79335 -0.8523747 -91.81425 21.84277 21.57653 0 0 -18.52346 14.23078 12.95556 -1.638051
0.4155169 103.7401 1.672477 1.854461 1.261958 0.3855013 4.366089 -19.22655 10.56429 -0 36.96015 -0 -2.353842 -19.55546 -1.890112 -8.998592 9.736625 -22.37042 -0 4.763209 -0 22.49178 -9.473068 30.41406 -1.804812 -2.306401 5.75879 1.770796 10.31003 -6.868332 1.568616 20.95001 7.033086 3.167775 -24.6111 10.19085 5.336658 -19.47579 10.98808 86.79076 39.53726 -18.48585 -0 0 14.62516 -7.467993 9.374879 4.078032 6.846814 -20.90633 -0.9583084 -91.16791 21.53667 20.74448 0 0 -19.72748 14.79003 12.627 -2.294388
0.8016786 103.5131 3.739576 1.538106 0.2548377 0.5151929 3.91685 -20.69479 7.050503 -0 30.89316 -0 -5.410324 -13.87294 -1.167816 -8.31005 10.73274 -21.22378 -0 5.752444 -0 17.5001 -13.68264 28.00335 -1.81835 -2.265423 5.566628 1.945723 10.36343 -7.053667 1.535117 20.93199 6.955936 3.119003 -24.58601 10.01646 5.354902 -19.25249 11.06345 87.04463 39.03612 -19.00139 -0 0 14.15581 -7.575081 9.365952 4.205737 6.774653 -21.00051 -1.129951 -90.91191 21.62588 20.29241 0 0 -19.99456 14.29917 12.49106 -1.79762
1.17935 103.2041 6.059328 1.107113 0.443247 0.5858134 4.461065 -23.21099 6.349158 -0 28.43323 -0 -6.141633 -11.45981 -0.940405 -7.932008 11.11263 -20.50559 -0 6.447205 -0 16.19824 -15.24294 27.15894 -1.80993 -2.199776 5.422102 2.023262 10.39481 -7.175378 1.549464 20.88097 6.951353 3.123685 -24.61381 10.01768 5.360035 -19.0966 11.06262 87.43354 39.05782 -19.50179 -0 0 13.7779 -7.375483 9.316027 4.066089 6.814637 -21.06648 -1.223308 -90.57503 21.52074 19.82481 0 0 -20.52181 14.34107 12.32072 -1.879202
1.544288 102.7365 8.731234 0.7313863 0.6722354 0.6583707 4.850196 -25.7753 5.250584 -0 25.06937 -0 -6.966358 -8.590066 -0.5006594 -7.584667 11.47026 -19.46155 -0 7.301337 -0 14.91205 -16.73144 25.97302 -1.806193 -2.134372 5.200841 2.18185 10.44293 -7.377229 1.54609 20.82479 6.922193 3.106025 -24.66726 9.961956 5.373845 -18.86295 11.09322 87.91681 38.84305 -20.22263 -0 0 13.22213 -7.20886 9.264639 3.972716 6.823504 -21.17501 -1.380093 -90.18877 21.48504 19.23073 0 0 -21.10968 14.18198 12.12502 -1.747124
1.895697 102.1662 11.78139 0.4029321 1.063075 0.7657086 5.286558 -28.14551 4.377215 -0 21.98334 -0 -7.574105 -6.153583 -0.03899113 -7.326592 11.77065 -18.41225 -0 8.365143 -0 14.27469 -17.59095 24.90197 -1.800513 -2.07108 5.042677 2.274813 10.4767 -7.512703 1.554148 20.77751 6.908949 3.103633 -24.68743 9.940787 5.38075 -18.68988 11.10169 88.30169 38.78892 -20.74223 -0 0 12.81644 -7.048684 9.222786 3.866316 6.850054 -21.24969 -1.487785 -89.85051 21.39864 18.74205 0 0 -21.62341 14.15466 11.95716 -1.755507
2.22817 101.5119 15.27699 0.1313204 1.423704 0.9353916 5.608539 -30.06908 3.296098 -0 18.73956 -0 -8.247068 -3.687737 0.5048293 -7.093118 12.07943 -17.19309 -0 9.886405 -0 13.64358 -18.07711 23.55601 -1.796997 -2.013726 4.904212 2.355123 10.50735 -7.630161 1.559507 20.73909 6.892382 3.099632 -24.68747 9.909077 5.386613 -18.53301 11.11202 88.62392 38.72203 -21.17968 -0 0 12.46105 -6.937359 9.192609 3.793795 6.867507 -21.31555 -1.585982 -89.54869 21.32182 18.30383 0 0 -22.06362 14.10359 11.80827 -1.735805
2.537084 100.8304 19.25737 -0.1032789 1.669377 1.179305 5.861605 -31.28867 2.106203 -0 15.75657 -0 -8.97734 -1.382372 1.035186 -6.852637 12.37497 -15.86502 -0 12.08447 -0 12.88339 -18.09047 21.92597 -1.796419 -1.964098 4.837061 2.374836 10.52552 -7.67664 1.568154 20.72026 6.877454 3.102063 -24.63078 9.877683 5.386893 -18.4388 11.113 88.78349 38.73879 -21.35947 -0 0 12.27849 -6.907929 9.18404 3.768834 6.87971 -21.34291 -1.639593 -89.32997 21.2304 18.01022 0 0 -22.33961 14.09004 11.70209 -1.752834
2.818714 100.1967 23.74857 -0.3212172 1.683327 1.485253 6.084732 -31.61872 0.8244998 -0 13.20988 -0 -9.794528 0.723558 1.484473 -6.561827 12.60464 -14.40355 -0 15.25123 -0 11.83428 -17.57447 19.96438 -1.800292 -1.92439 4.84329 2.337308 10.5328 -7.652062 1.576477 20.72469 6.858303 3.107304 -24.5082 9.831875 5.38196 -18.4069 11.11017 88.75676 38.80303 -21.26361 -0 0 12.27408 -6.991328 9.201862 3.816048 6.877654 -21.33159 -1.651766 -89.20735 21.14027 17.87468 0 0 -22.41688 14.07255 11.64277 -1.760396
3.072463 99.71005 28.73994 -0.5456007 1.365935 1.807853 6.371439 -30.94871 -0.4094869 -0 11.37075 -0 -10.68978 2.486447 1.774608 -6.187145 12.65092 -12.84823 -0 19.61804 -0 10.53275 -16.43887 17.799 -1.809372 -1.893872 4.940558 2.226275 10.52737 -7.538056 1.585268 20.75732 6.833261 3.117056 -24.29752 9.766391 5.3698 -18.45068 11.10204 88.49988 38.93018 -20.82216 -0 0 12.4894 -7.216977 9.251252 3.953701 6.859008 -21.27133 -1.613699 -89.19503 21.04579 17.9262 0 0 -22.25546 14.05061 11.63547 -1.758188
3.300048 99.47749 34.17996 -0.7835943 0.6362264 2.066288 6.788449 -29.26537 -1.475323 -0 10.35448 -0 -11.65989 3.800667 1.865215 -5.708408 12.34257 -11.24165 -0 25.30859 -0 9.144127 -14.64814 15.6523 -1.823751 -1.871169 5.129422 2.040836 10.51085 -7.33372 1.593176 20.81922 6.79909 3.130649 -23.98759 9.671689 5.349248 -18.5684 11.09089 88.0015 39.09734 -20.02172 -0 0 12.92606 -7.607025 9.333537 4.198011 6.820282 -21.16191 -1.529008 -89.29198 20.94891 18.16233 0 0 -21.84491 13.99987 11.67603 -1.720563
3.50324 99.5923 39.96933 -1.018927 -0.5305718 2.15741 7.33609 -26.6514 -2.289996 -0 10.1143 -0 -12.69041 4.577883 1.758433 -5.128877 11.47304 -9.656465 -0 32.18628 -0 7.915391 -12.28812 13.81099 -1.842634 -1.852683 5.405345 1.781535 10.48528 -7.041696 1.600007 20.90901 6.753958 3.148569 -23.57092 9.541788 5.318585 -18.75433 11.0777 87.26729 39.28273 -18.8673 -0 0 13.5743 -8.172952 9.44602 4.557418 6.76116 -21.00438 -1.404066 -89.48628 20.84556 18.56532 0 0 -21.19626 13.903 11.75388 -1.630979
3.679741 100.1037 45.96762 -1.209509 -2.083852 1.986939 7.923935 -23.2455 -2.850127 -0 10.40301 -0 -13.74471 4.777797 1.493445 -4.476201 9.853393 -8.173433 -0 39.7705 -0 7.048185 -9.601452 12.51742 -1.864446 -1.834415 5.754283 1.457117 10.45388 -6.673939 1.605438 21.02239 6.696573 3.170623 -23.05104 9.373096 5.276376 -18.99593 11.06431 86.32757 39.44999 -17.40124 -0 0 14.40314 -8.912546 9.581188 5.032238 6.682599 -20.80381 -1.2509 -89.75858 20.7346 19.10222 0 0 -20.34115 13.73896 11.8534 -1.469143
3.820281 100.9909 52.01307 -1.300048 -3.889225 1.511022 8.404448 -19.20473 -3.210738 -0 10.85068 -0 -14.74472 4.404447 1.119376 -3.793551 7.382911 -6.870623 -0 47.2004 -0 6.59696 -6.958752 11.89627 -1.887078 -1.812696 6.158718 1.079722 10.41964 -6.245788 1.609801 21.15342 6.627004 3.19659 -22.44069 9.16698 5.221354 -19.27967 11.05199 85.22744 39.56295 -15.68584 -0 0 15.37457 -9.809746 9.727852 5.613533 6.587325 -20.56557 -1.082317 -90.08947 20.61646 19.7384 0 0 -19.32018 13.49294 11.95822 -1.221199
3.910136 102.1521 57.95509 -1.246717 -5.753799 0.7640224 8.643756 -14.68181 -3.438115 -0 11.1027 -0 -15.57518 3.496121 0.6669879 -3.115765 4.111312 -5.801759 -0 53.34116 -0 6.443937 -4.754615 11.93547 -1.908232 -1.785892 6.601496 0.6631959 10.3847 -5.773203 1.613615 21.29586 6.546768 3.225877 -21.76129 8.929579 5.152594 -19.59486 11.0415 84.0178 39.58929 -13.79222 -0 0 16.45237 -10.83839 9.87328 6.285515 6.47876 -20.2944 -0.9091994 -90.46704 20.49558 20.44878 0 0 -18.1708 13.15705 12.05549 -0.8792872
3.936467 103.4196 63.68766 -1.050585 -7.469373 -0.1520184 8.592788 -9.844901 -3.558241 -0 10.96769 -0 -16.12027 2.095175 0.1401501 -2.439598 0.2591512 -4.982628 -0 57.01215 -0 6.370326 -3.271851 12.522 -1.925725 -1.755206 7.070459 0.2191558 10.34969 -5.268587 1.617362 21.44421 6.45928 3.257984 -21.03918 8.671372 5.06932 -19.93758 11.03253 82.74434 39.50848 -11.78331 -0 0 17.61257 -11.96817 10.0055 7.028979 6.360682 -19.99327 -0.7375316 -90.89106 20.37863 21.22597 0 0 -16.91831 12.73377 12.13854 -0.4447626
3.898371 104.5952 69.16962 -0.7856367 -8.858149 -1.118954 8.314283 -4.914855 -3.537702 -0 10.49059 -0 -16.32245 0.2131155 -0.4661634 -1.708404 -3.823227 -4.390296 -0 57.29706 -0 6.17657 -2.569527 13.49439 -1.937674 -1.724918 7.559959 -0.244676 10.31384 -4.739624 1.620934 21.59402 6.370031 3.292797 -20.30287 8.405666 4.970812 -20.3116 11.02366 81.44214 39.31415 -9.705711 -0 0 18.84641 -13.16988 10.11475 7.824817 6.236832 -19.66418 -0.5678541 -91.37221 20.27231 22.0804 0 0 -15.57448 12.23573 12.20695 0.07208815
3.813281 105.4948 74.42506 -0.5939492 -9.803996 -2.062844 7.943126 -0.1724717 -3.31251 -0 9.912167 -0 -16.22375 -2.17307 -1.133455 -0.8384489 -7.744821 -3.98476 -0 53.84335 -0 5.773869 -2.459747 14.6852 -1.942637 -1.701632 8.069265 -0.7241308 10.27545 -4.190664 1.623312 21.74143 6.286525 3.330879 -19.58131 8.147125 4.856664 -20.72607 11.01253 80.13669 39.01519 -7.591272 -0 0 20.15566 -14.41675 10.19391 8.655043 6.111058 -19.31001 -0.3965726 -91.92593 20.18046 23.03219 0 0 -14.1449 11.68542 12.26464 0.6516788
3.714312 105.9886 79.5294 -0.6227819 -10.26826 -2.977179 7.596215 4.107478 -2.849301 -0 9.54795 -0 -15.94841 -5.049637 -1.796162 0.2040973 -11.17306 -3.750787 -0 47.06012 -0 5.189567 -2.608096 15.9439 -1.93985 -1.692589 8.597139 -1.215016 10.23293 -3.627492 1.62261 21.88231 6.217411 3.373192 -18.90345 7.910198 4.727793 -21.18859 10.99649 78.85228 38.6351 -5.471278 -0 0 21.5382 -15.68026 10.23889 9.50017 5.987659 -18.93787 -0.219298 -92.56093 20.10227 24.09388 0 0 -12.64461 11.11404 12.31693 1.264989
3.63865 106.0293 84.59189 -0.9203509 -10.29383 -3.891587 7.281711 7.769538 -2.197781 -0 9.674303 -0 -15.62132 -8.226924 -2.343721 1.310486 -13.89822 -3.738165 -0 38.12933 -0 4.493902 -2.724747 17.14001 -1.929676 -1.702589 9.133096 -1.706641 10.18612 -3.064622 1.616872 22.01151 6.170047 3.420006 -18.29706 7.706967 4.588271 -21.69373 10.97387 77.62494 38.20995 -3.400472 -0 0 22.9647 -16.92079 10.24963 10.33301 5.871697 -18.56258 -0.03589668 -93.26303 20.03262 25.24484 0 0 -11.11948 10.55873 12.36705 1.874375
3.614367 105.6647 89.73968 -1.364878 -10.00143 -4.816495 6.868608 10.83955 -1.493454 -0 10.50187 -0 -15.27599 -11.22824 -2.647963 2.198698 -15.83385 -4.062339 -0 28.76911 -0 3.718624 -2.734658 18.16143 -1.914131 -1.72939 9.6474 -2.17372 10.13808 -2.533097 1.605807 22.12282 6.145911 3.468814 -17.78549 7.54368 4.447326 -22.20873 10.94609 76.51611 37.78135 -1.484396 -0 0 24.35184 -18.07661 10.2315 11.11126 5.768639 -18.20858 0.1433379 -93.97843 19.96634 26.40387 0 0 -9.665669 10.05447 12.41176 2.439525
